<svg xmlns="http://www.w3.org/2000/svg" width="855" height="578" viewBox="0 0 855 578">
  <g fill="none" fill-rule="evenodd">
    <rect width="110" height="123" x="151.557" y="268" fill="#CCC" fill-rule="nonzero"/>
    <polygon fill="#E6E6E6" fill-rule="nonzero" points="95.557 576 39.557 576 33.557 528 101.557 528"/>
    <path fill="#E6E6E6" fill-rule="nonzero" d="M208.00708 541.23232L206.11733 567.06727C205.94425 569.433127 206.801153 571.758496 208.468024 573.446328 210.134896 575.13416 212.449375 576.020053 214.81721 575.87655L228.08714 575.07282C229.331959 574.997196 230.47859 574.371622 231.215929 573.365827 231.953269 572.360031 232.20486 571.078311 231.90244 569.86842L224.5365 540.40561 208.00708 541.23232zM319.00264 556.50938C334.62024 560.16278 345.77675 565.35571 353.10564 572.38372 355.715607 574.867482 359.130698 576.331449 362.72923 576.50912 367.32576 576.75086 371.08415 576.23563 373.90867 574.97401L373.90912 574.97401C375.38244 574.32448 376.387351 572.926718 376.53381 571.32325 376.708182 569.69434 375.98518 568.099041 374.64535 567.15638L337.60581 540.80178 321.87263 547.09578 318.20247 550.76594C317.396979 551.571637 317.015937 552.70844 317.173147 553.836822 317.330358 554.965205 318.007624 555.95456 319.00267 556.5094L319.00264 556.50938z"/>
    <path fill="#343A40" fill-rule="nonzero" d="M270.94021,134.69455 L165.06692,133.71424 C165.33315,118.2936 168.92099,103.15093 176.76361,89.60046 C181.91437,80.701 181.80309,71.01572 180.56181,62.85606 C178.64626,50.26406 183.10067,37.38058 192.99889,29.36487 C200.563144,23.2285216 210.11008,20.0697593 219.84155,20.48353 L221.89735,20.56919 C235.504979,21.1347015 247.890272,28.5837768 254.76789,40.33902 C258.207899,46.5145636 259.595179,53.6239725 258.72923,60.63975 C258.05817,67.24104 259.66389,73.90957 263.41983,80.64161 C269.89977,95.42419 271.30298,114.34041 270.94021,134.69455 Z"/>
    <path fill="#28A745" fill-rule="nonzero" d="M341.77486,542.17633 L320.99608,547.59688 L219.81248,327.16118 L226.13648,542.17633 L205.35768,542.17633 C183.15418,441.01754 143.06715,324.26952 161.08986,287.41048 L268.59743,281.08648 L341.77486,542.17633 Z"/>
    <circle cx="218.909" cy="69.685" r="28.006" fill="#FFB9B9" fill-rule="nonzero"/>
    <path fill="#FFB9B9" fill-rule="nonzero" d="M243.30153,121.18028 L197.22686,118.47 C201.74227,108.10623 203.54598,98.12637 201.74398,88.657 L236.07413,88.657 C235.99633,95.92761 239.61444,108.50442 243.30153,121.18028 Z"/>
    <polygon fill="#28A745" fill-rule="nonzero" points="272.211 289.217 171.028 296.445 181.417 117.115 199.034 112.146 218.909 116.663 238.784 106.725 251.432 111.243"/>
    <path fill="#E6E6E6" fill-rule="nonzero" d="M188.19261,418.4071 L119.08061,402.59716 C139.63121,334.44898 176.6541,178.54594 164.70361,122.98716 L200.84061,106.72551 L188.19261,418.4071 Z"/>
    <path fill="#E6E6E6" fill-rule="nonzero" d="M154.76588 221.46045L128.56656 205.1988 150.90996 139.7594C153.40197 133.006859 158.175139 127.337321 164.40422 123.73101L171.93096 119.37343 167.41383 185.32343 154.76588 221.46045zM332.2889 403.50061C310.47563 416.12074 255.94981 423.1557 232.00872 414.34171 230.24703 352.76894 226.79208 178.60271 237.88098 104.91865L277.63168 121.1803 274.01798 169.96525C255.01391 211.69812 310.19761 357.05399 332.2889 403.50061z"/>
    <polygon fill="#E6E6E6" fill-rule="nonzero" points="329.127 213.33 304.734 205.199 272.211 168.158 277.632 121.18 331.837 197.068"/>
    <path fill="#FFB9B9" fill-rule="nonzero" d="M252.68118,248.49394 C253.512221,252.140627 257.137465,254.427173 260.78642,253.60615 L281.49242,248.91698 L278.49983,235.70042 L257.7934,240.3887 C254.143807,241.215634 251.855208,244.844131 252.68119,248.49394 L252.68118,248.49394 Z"/>
    <path fill="#343A40" fill-rule="nonzero" d="M243.30153,62.45761 C227.74579,56.06111 212.38233,55.59825 197.22686,61.55419 L190.90286,38.96856 L248.72206,38.96856 L243.30153,62.45761 Z"/>
    <path fill="#E6E6E6" fill-rule="nonzero" d="M271.30771,233.20498 L283.05223,254.88718 C302.80633,249.37763 319.92635,232.0084 336.35431,211.52278 L331.83718,197.06798 L303.83101,204.29538 L271.30771,233.20498 Z"/>
    <path fill="#343A40" fill-rule="nonzero" d="M262.72517 188.48544L259.11147 188.48544C259.11147 137.37487 248.58798 101.75664 238.3327 101.75664L237.42927 98.14294C246.62627 98.14294 252.48974 112.96694 255.78891 125.40317 260.26193 142.26255 262.72517 164.66554 262.72517 188.48544zM179.61007 175.83749L175.99633 175.83749C175.99633 129.02834 186.59261 99.94979 202.19566 99.94979L201.29223 103.56349C190.49969 103.56349 179.61007 125.91135 179.61007 175.83749z"/>
    <circle cx="260.918" cy="189.389" r="9.034" fill="#343A40" fill-rule="nonzero"/>
    <path fill="#343A40" fill-rule="nonzero" d="M165.15527 197.51969L161.54157 197.51969C161.54157 184.5678 168.83646 174.03064 177.80322 174.03064L177.80322 177.64434C170.82903 177.64434 165.15527 186.56037 165.15527 197.51969zM194.06487 197.51969L190.45117 197.51969C190.45117 186.56037 184.77741 177.64434 177.80322 177.64434L177.80322 174.03061C186.76998 174.03061 194.06487 184.5678 194.06487 197.51969z"/>
    <circle cx="192.258" cy="198.423" r="3.614" fill="#343A40" fill-rule="nonzero"/>
    <circle cx="163.348" cy="198.423" r="3.614" fill="#343A40" fill-rule="nonzero"/>
    <polygon fill="#28A745" fill-rule="nonzero" points="118.177 165.193 140.724 169.219 192.258 242.495 164.88 236.053"/>
    <path fill="#343A40" fill-rule="nonzero" d="M114.17793,164.29588 C113.478145,164.306412 112.839671,164.697331 112.512113,165.315809 C112.184555,165.934287 112.219938,166.682093 112.60443,167.26688 L160.77578,240.35476 C161.044584,240.763357 161.459788,241.053369 161.93594,241.16511 L184.34864,246.43832 C185.122303,246.620413 185.92801,246.305524 186.373173,245.647085 C186.818337,244.988646 186.810352,244.123629 186.35311,243.47352 L133.46393,168.27175 C133.174256,167.85796 132.731985,167.576282 132.23452,167.48875 L114.53921,164.32852 C114.419966,164.30712 114.299078,164.296198 114.17793,164.29588 Z"/>
    <path fill="#FFB9B9" fill-rule="nonzero" d="M144.2274,216.55293 L145.56621,230.03814 L166.69259,227.94103 C170.416428,227.571449 173.13559,224.253078 172.76601,220.52924 C172.396429,216.805402 169.078058,214.08624 165.35422,214.45582 L144.2274,216.55293 Z"/>
    <path fill="#E6E6E6" fill-rule="nonzero" d="M125.85672,214.9909 C125.920583,224.562072 133.691712,232.290465 143.26309,232.30155 L146.73696,232.30155 L149.26596,211.2259 L128.32617,203.68751 L125.85672,214.9909 Z"/>
    <rect width="412" height="217" x="442.557" fill="#E6E6E6" fill-rule="nonzero"/>
    <polygon fill="#FFF" fill-rule="nonzero" points="454.557 205 842.557 205 842.557 12 454.557 12"/>
    <rect width="138" height="138" x="484.557" y="40" fill="#343A40" fill-rule="nonzero"/>
    <path fill="#FFF" d="M541.43381,122.498199 L589.783542,74 L601,85.2509004 L552.650268,133.7491 L541.43381,145 L506,109.457383 L517.216458,98.2064826 L541.43381,122.498199 Z"/>
    <rect width="40" height="6" x="530.557" y="37" fill="#E6E6E6" fill-rule="nonzero"/>
    <rect width="138" height="138" x="660.557" y="40" fill="#343A40" fill-rule="nonzero"/>
    <path fill="#FFF" d="M740.7509,109.5 L765,133.7491 L753.7491,145 L729.5,120.7509 L705.2509,145 L694,133.7491 L718.2491,109.5 L694,85.2509004 L705.2509,74 L729.5,98.2490996 L753.7491,74 L765,85.2509004 L740.7509,109.5 Z"/>
    <rect width="40" height="6" x="706.557" y="37" fill="#E6E6E6" fill-rule="nonzero"/>
    <path fill="#E6E6E6" fill-rule="nonzero" d="M25.17642,510.24301 C39.59607,529.55401 69.52842,531.58654 69.52842,531.58654 C69.52842,531.58654 76.08194,502.30975 61.66229,482.99874 C47.24264,463.68773 17.31029,461.65521 17.31029,461.65521 C17.31029,461.65521 10.75677,490.932 25.17642,510.24301 Z"/>
    <path fill="#E6E6E6" fill-rule="nonzero" d="M98.63314,517.50261 C89.11805,530.24536 69.36656,531.58656 69.36656,531.58656 C69.36656,531.58656 65.04209,512.26769 74.55719,499.52494 C84.07229,486.78219 103.82377,485.44094 103.82377,485.44094 C103.82377,485.44094 108.14824,504.75983 98.63314,517.50261 Z"/>
    <rect width="519.557" height="2.241" y="575.657" fill="#343A40" fill-rule="nonzero"/>
  </g>
</svg>
