<?xml version="1.0" standalone="no"?>
<!DOCTYPE svg PUBLIC "-//W3C//DTD SVG 20010904//EN"
 "http://www.w3.org/TR/2001/REC-SVG-20010904/DTD/svg10.dtd">
<svg version="1.0" xmlns="http://www.w3.org/2000/svg"
 width="522.000000pt" height="522.000000pt" viewBox="0 0 522.000000 522.000000"
 preserveAspectRatio="xMidYMid meet">
<metadata>
Created by potrace 1.11, written by Peter Selinger 2001-2013
</metadata>
<g transform="translate(0.000000,522.000000) scale(0.100000,-0.100000)"
fill="#000000" stroke="none">
<path d="M2465 4774 c-536 -42 -1008 -253 -1376 -616 -656 -648 -827 -1640
-425 -2462 107 -219 231 -394 404 -570 495 -504 1181 -728 1882 -615 236 39
511 138 731 266 l86 50 402 -105 c220 -58 403 -103 406 -101 2 3 -43 176 -100
384 -58 209 -105 388 -105 397 0 9 23 54 52 100 286 461 385 1032 272 1575
-65 314 -215 629 -424 893 -84 105 -279 295 -382 373 -289 217 -636 361 -988
411 -109 16 -349 26 -435 20z m938 -744 c78 -29 149 -96 189 -178 30 -60 33
-75 33 -157 0 -82 -3 -97 -32 -156 -79 -159 -256 -241 -419 -194 -72 21 -85
31 -78 60 3 12 1 58 -5 101 -14 97 -62 204 -122 269 l-42 45 18 40 c38 85 148
169 249 190 58 13 144 4 209 -20z m-635 -260 c70 -37 129 -98 164 -168 20 -40
23 -63 23 -152 0 -100 -1 -108 -34 -168 -39 -72 -88 -120 -163 -159 -48 -25
-63 -28 -153 -28 -72 0 -111 5 -137 17 l-38 17 0 68 c0 126 -46 247 -125 332
-36 39 -41 50 -34 69 17 46 73 112 124 147 74 51 125 65 225 62 74 -3 93 -7
148 -37z m-688 -233 c78 -29 169 -121 199 -201 44 -117 23 -261 -52 -355 -71
-90 -169 -136 -287 -135 -103 0 -174 29 -246 99 -97 95 -132 217 -100 345 55
215 272 326 486 247z m1075 -322 c78 -19 142 -19 225 1 64 16 71 16 125 -1
107 -34 215 -139 249 -243 17 -50 56 -328 56 -398 0 -60 -26 -79 -137 -99
l-91 -17 -6 -47 c-3 -25 -13 -192 -22 -371 -18 -349 -22 -371 -75 -397 -33
-17 -397 -18 -435 -1 l-27 12 7 146 c4 80 9 182 13 227 l6 81 46 7 c64 9 105
31 145 75 57 63 61 96 36 293 -12 95 -28 200 -36 235 -38 171 -161 308 -327
366 l-67 24 35 31 c41 36 84 59 140 77 52 16 68 16 140 -1z m-668 -240 c74
-19 149 -19 233 1 64 16 72 16 121 0 67 -22 145 -72 188 -121 69 -79 87 -146
122 -443 12 -98 11 -104 -8 -130 -20 -27 -62 -41 -174 -56 l-45 -7 -23 -377
c-17 -276 -27 -384 -38 -405 -26 -51 -63 -59 -279 -55 -178 3 -195 5 -213 23
-19 19 -19 26 -6 225 8 113 14 210 14 217 1 7 28 17 61 24 116 23 184 101 182
210 -1 67 -38 357 -54 414 -41 158 -188 309 -346 356 l-42 12 22 24 c33 35 82
63 146 84 71 22 69 22 139 4z m-614 -255 c53 -9 81 -9 135 1 106 20 160 17
223 -12 69 -33 149 -111 183 -181 27 -54 58 -228 72 -400 6 -72 5 -78 -17
-100 -18 -18 -45 -28 -104 -38 -44 -7 -87 -16 -95 -21 -12 -6 -19 -74 -35
-383 -19 -345 -23 -378 -41 -403 -35 -47 -79 -55 -281 -51 l-182 3 -30 29
c-17 16 -33 43 -36 60 -3 17 -14 190 -24 384 -11 195 -21 355 -23 358 -3 2
-44 11 -92 20 -109 20 -139 42 -138 101 1 76 42 358 59 403 33 90 99 167 178
207 90 47 108 48 248 23z"/>
</g>
</svg>
